<svg width="1300" height="284" viewBox="0 0 1300 284" fill="none" xmlns="http://www.w3.org/2000/svg">
<g filter="url(#filter0_df_45_4)">
<mask id="path-1-outside-1_45_4" maskUnits="userSpaceOnUse" x="9.32007" y="9.6001" width="1281" height="264" fill="black">
<rect fill="white" x="9.32007" y="9.6001" width="1281" height="264"/>
<path d="M122.52 271.2C87.9601 271.2 60.8401 261.48 41.1601 242.04C21.7201 222.6 12.0001 194.52 12.0001 157.8V15.6001H58.8001V156C58.8001 181.92 64.3201 200.76 75.3601 212.52C86.6401 224.28 102.48 230.16 122.88 230.16C143.28 230.16 159 224.28 170.04 212.52C181.08 200.76 186.6 181.92 186.6 156V15.6001H232.68V157.8C232.68 194.52 222.84 222.6 203.16 242.04C183.72 261.48 156.84 271.2 122.52 271.2ZM376.343 271.2C356.663 271.2 337.823 268.44 319.823 262.92C301.823 257.16 287.543 249.84 276.983 240.96L293.183 204.6C303.263 212.52 315.743 219.12 330.623 224.4C345.503 229.68 360.743 232.32 376.343 232.32C389.543 232.32 400.223 230.88 408.383 228C416.543 225.12 422.543 221.28 426.383 216.48C430.223 211.44 432.143 205.8 432.143 199.56C432.143 191.88 429.383 185.76 423.863 181.2C418.343 176.4 411.143 172.68 402.263 170.04C393.623 167.16 383.903 164.52 373.103 162.12C362.543 159.72 351.863 156.96 341.063 153.84C330.503 150.48 320.783 146.28 311.903 141.24C303.263 135.96 296.183 129 290.663 120.36C285.143 111.72 282.383 100.68 282.383 87.2401C282.383 73.5601 285.983 61.0801 293.183 49.8001C300.623 38.2801 311.783 29.1601 326.663 22.4401C341.783 15.4801 360.863 12.0001 383.903 12.0001C399.023 12.0001 414.023 13.9201 428.903 17.7601C443.783 21.6001 456.743 27.1201 467.783 34.3201L453.023 70.6801C441.743 63.9601 430.103 59.0401 418.103 55.9201C406.103 52.5601 394.583 50.8801 383.543 50.8801C370.583 50.8801 360.023 52.4401 351.863 55.5601C343.943 58.6801 338.063 62.7601 334.223 67.8001C330.623 72.8401 328.823 78.6001 328.823 85.0801C328.823 92.7601 331.463 99.0001 336.743 103.8C342.263 108.36 349.343 111.96 357.983 114.6C366.863 117.24 376.703 119.88 387.503 122.52C398.303 124.92 408.983 127.68 419.543 130.8C430.343 133.92 440.063 138 448.703 143.04C457.583 148.08 464.663 154.92 469.943 163.56C475.463 172.2 478.223 183.12 478.223 196.32C478.223 209.76 474.503 222.24 467.063 233.76C459.863 245.04 448.703 254.16 433.583 261.12C418.463 267.84 399.383 271.2 376.343 271.2ZM563.869 271.2C547.789 271.2 532.909 268.08 519.229 261.84C505.789 255.6 494.749 246.6 486.109 234.84L512.749 202.8C519.709 212.4 527.269 219.6 535.429 224.4C543.829 229.2 552.949 231.6 562.789 231.6C588.949 231.6 602.029 216.12 602.029 185.16V54.8401H512.389V15.6001H648.829V182.64C648.829 212.4 641.509 234.6 626.869 249.24C612.469 263.88 591.469 271.2 563.869 271.2ZM930.605 271.2C911.405 271.2 893.525 268.08 876.965 261.84C860.645 255.36 846.365 246.36 834.125 234.84C822.125 223.08 812.765 209.28 806.045 193.44C799.325 177.6 795.965 160.32 795.965 141.6C795.965 122.88 799.325 105.6 806.045 89.7601C812.765 73.9201 822.245 60.2401 834.485 48.7201C846.725 36.9601 861.005 27.9601 877.325 21.7201C893.645 15.2401 911.525 12.0001 930.965 12.0001C951.605 12.0001 970.445 15.6001 987.485 22.8001C1004.52 29.7601 1018.92 40.2001 1030.68 54.1201L1000.44 82.5601C991.325 72.7201 981.125 65.4001 969.845 60.6001C958.565 55.5601 946.325 53.0401 933.125 53.0401C919.925 53.0401 907.805 55.2001 896.765 59.5201C885.965 63.8401 876.485 69.9601 868.325 77.8801C860.405 85.8001 854.165 95.1601 849.605 105.96C845.285 116.76 843.125 128.64 843.125 141.6C843.125 154.56 845.285 166.44 849.605 177.24C854.165 188.04 860.405 197.4 868.325 205.32C876.485 213.24 885.965 219.36 896.765 223.68C907.805 228 919.925 230.16 933.125 230.16C946.325 230.16 958.565 227.76 969.845 222.96C981.125 217.92 991.325 210.36 1000.44 200.28L1030.68 229.08C1018.92 242.76 1004.52 253.2 987.485 260.4C970.445 267.6 951.485 271.2 930.605 271.2ZM1186.89 271.2C1167.69 271.2 1149.81 268.08 1133.25 261.84C1116.93 255.36 1102.65 246.36 1090.41 234.84C1078.41 223.08 1069.05 209.28 1062.33 193.44C1055.61 177.6 1052.25 160.32 1052.25 141.6C1052.25 122.88 1055.61 105.6 1062.33 89.7601C1069.05 73.9201 1078.53 60.2401 1090.77 48.7201C1103.01 36.9601 1117.29 27.9601 1133.61 21.7201C1149.93 15.2401 1167.81 12.0001 1187.25 12.0001C1207.89 12.0001 1226.73 15.6001 1243.77 22.8001C1260.81 29.7601 1275.21 40.2001 1286.97 54.1201L1256.73 82.5601C1247.61 72.7201 1237.41 65.4001 1226.13 60.6001C1214.85 55.5601 1202.61 53.0401 1189.41 53.0401C1176.21 53.0401 1164.09 55.2001 1153.05 59.5201C1142.25 63.8401 1132.77 69.9601 1124.61 77.8801C1116.69 85.8001 1110.45 95.1601 1105.89 105.96C1101.57 116.76 1099.41 128.64 1099.41 141.6C1099.41 154.56 1101.57 166.44 1105.89 177.24C1110.45 188.04 1116.69 197.4 1124.61 205.32C1132.77 213.24 1142.25 219.36 1153.05 223.68C1164.09 228 1176.21 230.16 1189.41 230.16C1202.61 230.16 1214.85 227.76 1226.13 222.96C1237.41 217.92 1247.61 210.36 1256.73 200.28L1286.97 229.08C1275.21 242.76 1260.81 253.2 1243.77 260.4C1226.73 267.6 1207.77 271.2 1186.89 271.2Z"/>
</mask>
<path d="M41.1601 242.04L39.7458 243.454L39.7546 243.463L41.1601 242.04ZM12.0001 15.6001V13.6001H10.0001V15.6001H12.0001ZM58.8001 15.6001H60.8001V13.6001H58.8001V15.6001ZM75.3601 212.52L73.9019 213.889L73.9093 213.897L73.9167 213.905L75.3601 212.52ZM170.04 212.52L168.582 211.151L170.04 212.52ZM186.6 15.6001V13.6001H184.6V15.6001H186.6ZM232.68 15.6001H234.68V13.6001H232.68V15.6001ZM203.16 242.04L201.755 240.617L201.746 240.626L203.16 242.04ZM122.52 271.2V269.2C88.3479 269.2 61.7831 259.6 42.5656 240.617L41.1601 242.04L39.7546 243.463C59.897 263.36 87.5722 273.2 122.52 273.2V271.2ZM41.1601 242.04L42.5743 240.626C23.6219 221.674 14.0001 194.173 14.0001 157.8H12.0001H10.0001C10.0001 194.867 19.8182 223.527 39.7459 243.454L41.1601 242.04ZM12.0001 157.8H14.0001V15.6001H12.0001H10.0001V157.8H12.0001ZM12.0001 15.6001V17.6001H58.8001V15.6001V13.6001H12.0001V15.6001ZM58.8001 15.6001H56.8001V156H58.8001H60.8001V15.6001H58.8001ZM58.8001 156H56.8001C56.8001 182.135 62.3546 201.589 73.9019 213.889L75.3601 212.52L76.8182 211.151C66.2855 199.932 60.8001 181.705 60.8001 156H58.8001ZM75.3601 212.52L73.9167 213.905C85.6642 226.152 102.081 232.16 122.88 232.16V230.16V228.16C102.879 228.16 87.616 222.408 76.8034 211.136L75.3601 212.52ZM122.88 230.16V232.16C143.677 232.16 159.986 226.152 171.498 213.889L170.04 212.52L168.582 211.151C158.015 222.408 142.883 228.16 122.88 228.16V230.16ZM170.04 212.52L171.498 213.889C183.046 201.589 188.6 182.135 188.6 156H186.6H184.6C184.6 181.705 179.115 199.932 168.582 211.151L170.04 212.52ZM186.6 156H188.6V15.6001H186.6H184.6V156H186.6ZM186.6 15.6001V17.6001H232.68V15.6001V13.6001H186.6V15.6001ZM232.68 15.6001H230.68V157.8H232.68H234.68V15.6001H232.68ZM232.68 157.8H230.68C230.68 194.167 220.942 221.664 201.755 240.617L203.16 242.04L204.566 243.463C224.738 223.536 234.68 194.873 234.68 157.8H232.68ZM203.16 242.04L201.746 240.626C182.769 259.603 156.449 269.2 122.52 269.2V271.2V273.2C157.231 273.2 184.671 263.358 204.574 243.454L203.16 242.04ZM319.823 262.92L319.213 264.825L319.225 264.829L319.236 264.832L319.823 262.92ZM276.983 240.96L275.156 240.146L274.543 241.522L275.695 242.491L276.983 240.96ZM293.183 204.6L294.418 203.027L292.4 201.442L291.356 203.786L293.183 204.6ZM330.623 224.4L331.291 222.515L330.623 224.4ZM408.383 228L407.717 226.114L408.383 228ZM426.383 216.48L427.944 217.729L427.959 217.711L427.973 217.692L426.383 216.48ZM423.863 181.2L422.55 182.709L422.569 182.726L422.589 182.742L423.863 181.2ZM402.263 170.04L401.63 171.937L401.661 171.948L401.693 171.957L402.263 170.04ZM373.103 162.12L372.659 164.07L372.669 164.072L373.103 162.12ZM341.063 153.84L340.456 155.746L340.482 155.754L340.508 155.762L341.063 153.84ZM311.903 141.24L310.86 142.947L310.887 142.964L310.915 142.979L311.903 141.24ZM290.663 120.36L288.977 121.437L290.663 120.36ZM293.183 49.8001L291.502 48.715L291.497 48.724L293.183 49.8001ZM326.663 22.4401L327.486 24.2628L327.492 24.2599L327.499 24.2568L326.663 22.4401ZM428.903 17.7601L428.403 19.6966L428.903 17.7601ZM467.783 34.3201L469.636 35.0724L470.256 33.5452L468.875 32.6449L467.783 34.3201ZM453.023 70.6801L451.999 72.3983L454 73.5902L454.876 71.4323L453.023 70.6801ZM418.103 55.9201L417.563 57.846L417.581 57.8511L417.599 57.8557L418.103 55.9201ZM351.863 55.5601L351.148 53.692L351.139 53.6956L351.13 53.6993L351.863 55.5601ZM334.223 67.8001L332.632 66.588L332.613 66.6125L332.595 66.6376L334.223 67.8001ZM336.743 103.8L335.397 105.28L335.432 105.312L335.469 105.342L336.743 103.8ZM357.983 114.6L357.398 116.513L357.405 116.515L357.413 116.517L357.983 114.6ZM387.503 122.52L387.028 124.463L387.048 124.468L387.069 124.472L387.503 122.52ZM419.543 130.8L418.976 132.718L418.987 132.722L419.543 130.8ZM448.703 143.04L447.695 144.768L447.705 144.774L447.715 144.779L448.703 143.04ZM469.943 163.56L468.236 164.603L468.246 164.62L468.257 164.637L469.943 163.56ZM467.063 233.76L465.382 232.675L465.377 232.684L467.063 233.76ZM433.583 261.12L434.395 262.948L434.407 262.942L434.419 262.937L433.583 261.12ZM376.343 271.2V269.2C356.852 269.2 338.21 266.467 320.409 261.008L319.823 262.92L319.236 264.832C337.435 270.413 356.473 273.2 376.343 273.2V271.2ZM319.823 262.92L320.432 261.015C302.594 255.307 288.571 248.092 278.27 239.429L276.983 240.96L275.695 242.491C286.514 251.588 301.051 259.013 319.213 264.825L319.823 262.92ZM276.983 240.96L278.809 241.774L295.009 205.414L293.183 204.6L291.356 203.786L275.156 240.146L276.983 240.96ZM293.183 204.6L291.947 206.173C302.232 214.254 314.915 220.949 329.954 226.285L330.623 224.4L331.291 222.515C316.57 217.292 304.293 210.786 294.418 203.027L293.183 204.6ZM330.623 224.4L329.954 226.285C345.046 231.64 360.512 234.32 376.343 234.32V232.32V230.32C360.973 230.32 345.959 227.72 331.291 222.515L330.623 224.4ZM376.343 232.32V234.32C389.663 234.32 400.593 232.87 409.048 229.886L408.383 228L407.717 226.114C399.852 228.89 389.422 230.32 376.343 230.32V232.32ZM408.383 228L409.048 229.886C417.423 226.93 423.794 222.917 427.944 217.729L426.383 216.48L424.821 215.231C421.291 219.643 415.662 223.31 407.717 226.114L408.383 228ZM426.383 216.48L427.973 217.692C432.074 212.31 434.143 206.245 434.143 199.56H432.143H430.143C430.143 205.355 428.371 210.571 424.792 215.268L426.383 216.48ZM432.143 199.56H434.143C434.143 191.333 431.153 184.629 425.136 179.658L423.863 181.2L422.589 182.742C427.612 186.892 430.143 192.427 430.143 199.56H432.143ZM423.863 181.2L425.175 179.691C419.39 174.661 411.916 170.823 402.833 168.123L402.263 170.04L401.693 171.957C410.369 174.537 417.295 178.14 422.55 182.709L423.863 181.2ZM402.263 170.04L402.895 168.143C394.178 165.237 384.39 162.58 373.536 160.168L373.103 162.12L372.669 164.072C383.415 166.461 393.067 169.083 401.63 171.937L402.263 170.04ZM373.103 162.12L373.546 160.17C363.025 157.779 352.382 155.028 341.618 151.919L341.063 153.84L340.508 155.762C351.343 158.892 362.06 161.662 372.659 164.07L373.103 162.12ZM341.063 153.84L341.669 151.934C331.23 148.613 321.639 144.467 312.89 139.501L311.903 141.24L310.915 142.979C319.926 148.094 329.775 152.347 340.456 155.746L341.063 153.84ZM311.903 141.24L312.945 139.534C304.568 134.414 297.707 127.671 292.348 119.283L290.663 120.36L288.977 121.437C294.659 130.33 301.957 137.506 310.86 142.947L311.903 141.24ZM290.663 120.36L292.348 119.283C287.088 111.051 284.383 100.415 284.383 87.2401H282.383H280.383C280.383 100.945 283.197 112.39 288.977 121.437L290.663 120.36ZM282.383 87.2401H284.383C284.383 73.9324 287.878 61.8273 294.868 50.8762L293.183 49.8001L291.497 48.724C284.087 60.3329 280.383 73.1878 280.383 87.2401H282.383ZM293.183 49.8001L294.863 50.8851C302.057 39.7456 312.889 30.8551 327.486 24.2628L326.663 22.4401L325.839 20.6173C310.677 27.4651 299.188 36.8146 291.503 48.715L293.183 49.8001ZM326.663 22.4401L327.499 24.2568C342.276 17.4546 361.047 14.0001 383.903 14.0001V12.0001V10.0001C360.678 10.0001 341.289 13.5056 325.826 20.6233L326.663 22.4401ZM383.903 12.0001V14.0001C398.851 14.0001 413.683 15.8981 428.403 19.6966L428.903 17.7601L429.402 15.8235C414.362 11.9421 399.194 10.0001 383.903 10.0001V12.0001ZM428.903 17.7601L428.403 19.6966C443.107 23.4911 455.859 28.9319 466.69 35.9953L467.783 34.3201L468.875 32.6449C457.626 25.3083 444.459 19.709 429.402 15.8235L428.903 17.7601ZM467.783 34.3201L465.929 33.5678L451.169 69.9278L453.023 70.6801L454.876 71.4323L469.636 35.0724L467.783 34.3201ZM453.023 70.6801L454.046 68.9619C442.613 62.1509 430.799 57.1547 418.606 53.9845L418.103 55.9201L417.599 57.8557C429.406 60.9255 440.872 65.7693 451.999 72.3983L453.023 70.6801ZM418.103 55.9201L418.642 53.9942C406.488 50.5912 394.787 48.8801 383.543 48.8801V50.8801V52.8801C394.379 52.8801 405.717 54.5289 417.563 57.846L418.103 55.9201ZM383.543 50.8801V48.8801C370.445 48.8801 359.618 50.4534 351.148 53.692L351.863 55.5601L352.577 57.4282C360.427 54.4268 370.72 52.8801 383.543 52.8801V50.8801ZM351.863 55.5601L351.13 53.6993C342.983 56.9086 336.757 61.1741 332.632 66.588L334.223 67.8001L335.813 69.0122C339.369 64.3461 344.902 60.4516 352.596 57.4209L351.863 55.5601ZM334.223 67.8001L332.595 66.6376C328.741 72.0331 326.823 78.2037 326.823 85.0801H328.823H330.823C330.823 78.9964 332.504 73.647 335.85 68.9626L334.223 67.8001ZM328.823 85.0801H326.823C326.823 93.2753 329.666 100.07 335.397 105.28L336.743 103.8L338.088 102.32C333.259 97.9305 330.823 92.2449 330.823 85.0801H328.823ZM336.743 103.8L335.469 105.342C341.238 110.107 348.57 113.815 357.398 116.513L357.983 114.6L358.567 112.687C350.115 110.105 343.288 106.613 338.016 102.258L336.743 103.8ZM357.983 114.6L357.413 116.517C366.33 119.168 376.202 121.817 387.028 124.463L387.503 122.52L387.977 120.577C377.203 117.944 367.396 115.312 358.553 112.683L357.983 114.6ZM387.503 122.52L387.069 124.472C397.824 126.863 408.46 129.611 418.976 132.718L419.543 130.8L420.109 128.882C409.505 125.749 398.781 122.978 387.936 120.568L387.503 122.52ZM419.543 130.8L418.987 132.722C429.648 135.801 439.213 139.82 447.695 144.768L448.703 143.04L449.71 141.313C440.912 136.18 431.037 132.039 420.098 128.879L419.543 130.8ZM448.703 143.04L447.715 144.779C456.303 149.654 463.134 156.255 468.236 164.603L469.943 163.56L471.649 162.517C466.191 153.585 458.862 146.507 449.69 141.301L448.703 143.04ZM469.943 163.56L468.257 164.637C473.52 172.875 476.223 183.393 476.223 196.32H478.223H480.223C480.223 182.847 477.405 171.525 471.628 162.483L469.943 163.56ZM478.223 196.32H476.223C476.223 209.367 472.618 221.471 465.383 232.675L467.063 233.76L468.743 234.845C476.387 223.009 480.223 210.153 480.223 196.32H478.223ZM467.063 233.76L465.377 232.684C458.428 243.57 447.603 252.465 432.746 259.303L433.583 261.12L434.419 262.937C449.802 255.856 461.297 246.51 468.748 234.836L467.063 233.76ZM433.583 261.12L432.77 259.292C417.986 265.863 399.205 269.2 376.343 269.2V271.2V273.2C399.56 273.2 418.94 269.817 434.395 262.948L433.583 261.12ZM519.229 261.84L518.387 263.654L518.399 263.66L519.229 261.84ZM486.109 234.84L484.571 233.561L483.571 234.764L484.497 236.024L486.109 234.84ZM512.749 202.8L514.368 201.626L512.857 199.542L511.211 201.521L512.749 202.8ZM535.429 224.4L534.415 226.124L534.426 226.13L534.437 226.137L535.429 224.4ZM602.029 54.8401H604.029V52.8401H602.029V54.8401ZM512.389 54.8401H510.389V56.8401H512.389V54.8401ZM512.389 15.6001V13.6001H510.389V15.6001H512.389ZM648.829 15.6001H650.829V13.6001H648.829V15.6001ZM626.869 249.24L625.455 247.826L625.449 247.832L625.443 247.838L626.869 249.24ZM563.869 271.2V269.2C548.055 269.2 533.46 266.133 520.059 260.02L519.229 261.84L518.399 263.66C532.357 270.027 547.523 273.2 563.869 273.2V271.2ZM519.229 261.84L520.071 260.026C506.932 253.926 496.158 245.14 487.721 233.656L486.109 234.84L484.497 236.024C493.34 248.06 504.646 257.275 518.387 263.654L519.229 261.84ZM486.109 234.84L487.647 236.119L514.287 204.079L512.749 202.8L511.211 201.521L484.571 233.561L486.109 234.84ZM512.749 202.8L511.13 203.974C518.212 213.743 525.965 221.154 534.415 226.124L535.429 224.4L536.443 222.676C528.572 218.046 521.206 211.058 514.368 201.626L512.749 202.8ZM535.429 224.4L534.437 226.137C543.144 231.112 552.607 233.6 562.789 233.6V231.6V229.6C553.291 229.6 544.514 227.288 536.421 222.664L535.429 224.4ZM562.789 231.6V233.6C576.274 233.6 586.722 229.594 593.747 221.281C600.717 213.032 604.029 200.874 604.029 185.16H602.029H600.029C600.029 200.406 596.801 211.468 590.691 218.699C584.636 225.866 575.464 229.6 562.789 229.6V231.6ZM602.029 185.16H604.029V54.8401H602.029H600.029V185.16H602.029ZM602.029 54.8401V52.8401H512.389V54.8401V56.8401H602.029V54.8401ZM512.389 54.8401H514.389V15.6001H512.389H510.389V54.8401H512.389ZM512.389 15.6001V17.6001H648.829V15.6001V13.6001H512.389V15.6001ZM648.829 15.6001H646.829V182.64H648.829H650.829V15.6001H648.829ZM648.829 182.64H646.829C646.829 212.103 639.582 233.699 625.455 247.826L626.869 249.24L628.283 250.654C643.436 235.501 650.829 212.697 650.829 182.64H648.829ZM626.869 249.24L625.443 247.838C611.534 261.978 591.123 269.2 563.869 269.2V271.2V273.2C591.814 273.2 613.403 265.782 628.295 250.643L626.869 249.24ZM876.965 261.84L876.227 263.699L876.243 263.705L876.26 263.712L876.965 261.84ZM834.125 234.84L832.725 236.269L832.739 236.283L832.754 236.297L834.125 234.84ZM806.045 193.44L807.886 192.659L806.045 193.44ZM806.045 89.7601L807.886 90.5412V90.5412L806.045 89.7601ZM834.485 48.7201L835.855 50.1765L835.863 50.1694L835.87 50.1623L834.485 48.7201ZM877.325 21.7201L878.039 23.5882L878.051 23.5836L878.063 23.5789L877.325 21.7201ZM987.485 22.8001L986.706 24.6424L986.717 24.6471L986.729 24.6516L987.485 22.8001ZM1030.68 54.1201L1032.05 55.577L1033.44 54.2779L1032.21 52.8294L1030.68 54.1201ZM1000.44 82.5601L998.978 83.9196L1000.35 85.3972L1001.81 84.017L1000.44 82.5601ZM969.845 60.6001L969.029 62.4261L969.045 62.4334L969.062 62.4404L969.845 60.6001ZM896.765 59.5201L896.036 57.6576L896.029 57.6604L896.022 57.6631L896.765 59.5201ZM868.325 77.8801L866.932 76.4449L866.921 76.4553L866.911 76.4659L868.325 77.8801ZM849.605 105.96L847.762 105.182L847.755 105.2L847.748 105.217L849.605 105.96ZM849.605 177.24L847.748 177.983L847.755 178.001L847.762 178.018L849.605 177.24ZM868.325 205.32L866.911 206.734L866.921 206.745L866.932 206.755L868.325 205.32ZM896.765 223.68L896.022 225.537L896.029 225.54L896.036 225.543L896.765 223.68ZM969.845 222.96L970.628 224.8L970.644 224.793L970.661 224.786L969.845 222.96ZM1000.44 200.28L1001.82 198.832L1000.34 197.417L998.962 198.938L1000.44 200.28ZM1030.68 229.08L1032.2 230.384L1033.44 228.943L1032.06 227.632L1030.68 229.08ZM987.485 260.4L988.263 262.242L987.485 260.4ZM930.605 271.2V269.2C911.625 269.2 893.986 266.117 877.67 259.969L876.965 261.84L876.26 263.712C893.063 270.044 911.184 273.2 930.605 273.2V271.2ZM876.965 261.84L877.703 259.981C861.607 253.59 847.544 244.723 835.495 233.384L834.125 234.84L832.754 236.297C845.186 247.997 859.683 257.13 876.227 263.699L876.965 261.84ZM834.125 234.84L835.525 233.412C823.718 221.841 814.505 208.262 807.886 192.659L806.045 193.44L804.204 194.221C811.024 210.298 820.532 224.319 832.725 236.269L834.125 234.84ZM806.045 193.44L807.886 192.659C801.28 177.087 797.965 160.076 797.965 141.6H795.965H793.965C793.965 160.565 797.37 178.113 804.204 194.221L806.045 193.44ZM795.965 141.6H797.965C797.965 123.125 801.28 106.113 807.886 90.5412L806.045 89.7601L804.204 88.979C797.37 105.087 793.965 122.635 793.965 141.6H795.965ZM806.045 89.7601L807.886 90.5412C814.5 74.9503 823.822 61.5019 835.855 50.1765L834.485 48.7201L833.114 47.2637C820.667 58.9783 811.029 72.8899 804.204 88.979L806.045 89.7601ZM834.485 48.7201L835.87 50.1623C847.912 38.5933 861.962 29.7355 878.039 23.5882L877.325 21.7201L876.61 19.852C860.048 26.1847 845.538 35.3269 833.099 47.2779L834.485 48.7201ZM877.325 21.7201L878.063 23.5789C894.124 17.2017 911.75 14.0001 930.965 14.0001V12.0001V10.0001C911.299 10.0001 893.166 13.2785 876.587 19.8613L877.325 21.7201ZM930.965 12.0001V14.0001C951.368 14.0001 969.94 17.5579 986.706 24.6424L987.485 22.8001L988.263 20.9578C970.95 13.6423 951.841 10.0001 930.965 10.0001V12.0001ZM987.485 22.8001L986.729 24.6516C1003.47 31.4909 1017.61 41.7398 1029.16 55.4108L1030.68 54.1201L1032.21 52.8294C1020.24 38.6604 1005.58 28.0293 988.241 20.9486L987.485 22.8001ZM1030.68 54.1201L1029.31 52.6632L999.075 81.1032L1000.44 82.5601L1001.81 84.017L1032.05 55.577L1030.68 54.1201ZM1000.44 82.5601L1001.91 81.2006C992.618 71.1736 982.191 63.6801 970.628 58.7598L969.845 60.6001L969.062 62.4404C980.059 67.12 990.031 74.2666 998.978 83.9196L1000.44 82.5601ZM969.845 60.6001L970.661 58.7741C959.107 53.6117 946.586 51.0401 933.125 51.0401V53.0401V55.0401C946.063 55.0401 958.023 57.5085 969.029 62.4261L969.845 60.6001ZM933.125 53.0401V51.0401C919.704 51.0401 907.333 53.237 896.036 57.6576L896.765 59.5201L897.494 61.3826C908.276 57.1632 920.146 55.0401 933.125 55.0401V53.0401ZM896.765 59.5201L896.022 57.6631C884.985 62.0777 875.283 68.3391 866.932 76.4449L868.325 77.8801L869.718 79.3153C877.686 71.5811 886.944 65.6025 897.508 61.377L896.765 59.5201ZM868.325 77.8801L866.911 76.4659C858.8 84.5768 852.418 94.1557 847.762 105.182L849.605 105.96L851.447 106.738C855.912 96.1645 862.01 87.0234 869.739 79.2943L868.325 77.8801ZM849.605 105.96L847.748 105.217C843.323 116.279 841.125 128.415 841.125 141.6H843.125H845.125C845.125 128.866 847.246 117.241 851.462 106.703L849.605 105.96ZM843.125 141.6H841.125C841.125 154.786 843.323 166.921 847.748 177.983L849.605 177.24L851.462 176.497C847.246 165.959 845.125 154.335 845.125 141.6H843.125ZM849.605 177.24L847.762 178.018C852.418 189.044 858.8 198.623 866.911 206.734L868.325 205.32L869.739 203.906C862.01 196.177 855.912 187.036 851.447 176.462L849.605 177.24ZM868.325 205.32L866.932 206.755C875.283 214.861 884.985 221.122 896.022 225.537L896.765 223.68L897.508 221.823C886.944 217.598 877.686 211.619 869.718 203.885L868.325 205.32ZM896.765 223.68L896.036 225.543C907.333 229.963 919.704 232.16 933.125 232.16V230.16V228.16C920.146 228.16 908.276 226.037 897.494 221.818L896.765 223.68ZM933.125 230.16V232.16C946.573 232.16 959.082 229.714 970.628 224.8L969.845 222.96L969.062 221.12C958.048 225.807 946.077 228.16 933.125 228.16V230.16ZM969.845 222.96L970.661 224.786C982.219 219.622 992.64 211.887 1001.93 201.622L1000.44 200.28L998.962 198.938C990.009 208.833 980.031 216.218 969.029 221.134L969.845 222.96ZM1000.44 200.28L999.065 201.728L1029.31 230.528L1030.68 229.08L1032.06 227.632L1001.82 198.832L1000.44 200.28ZM1030.68 229.08L1029.17 227.776C1017.61 241.216 1003.47 251.475 986.706 258.558L987.485 260.4L988.263 262.242C1005.58 254.925 1020.23 244.304 1032.2 230.384L1030.68 229.08ZM987.485 260.4L986.706 258.558C969.942 265.641 951.252 269.2 930.605 269.2V271.2V273.2C951.718 273.2 970.947 269.559 988.263 262.242L987.485 260.4ZM1133.25 261.84L1132.52 263.699L1132.53 263.705L1132.55 263.712L1133.25 261.84ZM1090.41 234.84L1089.01 236.269L1089.03 236.283L1089.04 236.297L1090.41 234.84ZM1062.33 193.44L1064.17 192.659L1062.33 193.44ZM1062.33 89.7601L1064.17 90.5412V90.5412L1062.33 89.7601ZM1090.77 48.7201L1092.14 50.1765L1092.15 50.1694L1092.16 50.1623L1090.77 48.7201ZM1133.61 21.7201L1134.33 23.5882L1134.34 23.5836L1134.35 23.5789L1133.61 21.7201ZM1243.77 22.8001L1243 24.6424L1243.01 24.6471L1243.02 24.6516L1243.77 22.8001ZM1286.97 54.1201L1288.34 55.577L1289.73 54.2779L1288.5 52.8294L1286.97 54.1201ZM1256.73 82.5601L1255.27 83.9196L1256.64 85.3972L1258.1 84.017L1256.73 82.5601ZM1226.13 60.6001L1225.32 62.4261L1225.33 62.4334L1225.35 62.4404L1226.13 60.6001ZM1153.05 59.5201L1152.33 57.6576L1152.32 57.6604L1152.31 57.6631L1153.05 59.5201ZM1124.61 77.8801L1123.22 76.4449L1123.21 76.4553L1123.2 76.4659L1124.61 77.8801ZM1105.89 105.96L1104.05 105.182L1104.04 105.2L1104.04 105.217L1105.89 105.96ZM1105.89 177.24L1104.04 177.983L1104.04 178.001L1104.05 178.018L1105.89 177.24ZM1124.61 205.32L1123.2 206.734L1123.21 206.745L1123.22 206.755L1124.61 205.32ZM1153.05 223.68L1152.31 225.537L1152.32 225.54L1152.33 225.543L1153.05 223.68ZM1226.13 222.96L1226.92 224.8L1226.93 224.793L1226.95 224.786L1226.13 222.96ZM1256.73 200.28L1258.11 198.832L1256.63 197.417L1255.25 198.938L1256.73 200.28ZM1286.97 229.08L1288.49 230.384L1289.73 228.943L1288.35 227.632L1286.97 229.08ZM1243.77 260.4L1244.55 262.242L1243.77 260.4ZM1186.89 271.2V269.2C1167.91 269.2 1150.28 266.117 1133.96 259.969L1133.25 261.84L1132.55 263.712C1149.35 270.044 1167.47 273.2 1186.89 273.2V271.2ZM1133.25 261.84L1133.99 259.981C1117.9 253.59 1103.83 244.723 1091.78 233.384L1090.41 234.84L1089.04 236.297C1101.47 247.997 1115.97 257.13 1132.52 263.699L1133.25 261.84ZM1090.41 234.84L1091.81 233.412C1080.01 221.841 1070.79 208.262 1064.17 192.659L1062.33 193.44L1060.49 194.221C1067.31 210.298 1076.82 224.319 1089.01 236.269L1090.41 234.84ZM1062.33 193.44L1064.17 192.659C1057.57 177.087 1054.25 160.076 1054.25 141.6H1052.25H1050.25C1050.25 160.565 1053.66 178.113 1060.49 194.221L1062.33 193.44ZM1052.25 141.6H1054.25C1054.25 123.125 1057.57 106.113 1064.17 90.5412L1062.33 89.7601L1060.49 88.979C1053.66 105.087 1050.25 122.635 1050.25 141.6H1052.25ZM1062.33 89.7601L1064.17 90.5412C1070.79 74.9503 1080.11 61.5019 1092.14 50.1765L1090.77 48.7201L1089.4 47.2637C1076.96 58.9783 1067.32 72.8899 1060.49 88.979L1062.33 89.7601ZM1090.77 48.7201L1092.16 50.1623C1104.2 38.5933 1118.25 29.7355 1134.33 23.5882L1133.61 21.7201L1132.9 19.852C1116.34 26.1847 1101.83 35.3269 1089.39 47.2779L1090.77 48.7201ZM1133.61 21.7201L1134.35 23.5789C1150.41 17.2017 1168.04 14.0001 1187.25 14.0001V12.0001V10.0001C1167.59 10.0001 1149.45 13.2785 1132.88 19.8613L1133.61 21.7201ZM1187.25 12.0001V14.0001C1207.66 14.0001 1226.23 17.5579 1243 24.6424L1243.77 22.8001L1244.55 20.9578C1227.24 13.6423 1208.13 10.0001 1187.25 10.0001V12.0001ZM1243.77 22.8001L1243.02 24.6516C1259.76 31.4909 1273.9 41.7398 1285.45 55.4108L1286.97 54.1201L1288.5 52.8294C1276.53 38.6604 1261.87 28.0293 1244.53 20.9486L1243.77 22.8001ZM1286.97 54.1201L1285.6 52.6632L1255.36 81.1032L1256.73 82.5601L1258.1 84.017L1288.34 55.577L1286.97 54.1201ZM1256.73 82.5601L1258.2 81.2006C1248.91 71.1736 1238.48 63.6801 1226.92 58.7598L1226.13 60.6001L1225.35 62.4404C1236.35 67.12 1246.32 74.2666 1255.27 83.9196L1256.73 82.5601ZM1226.13 60.6001L1226.95 58.7741C1215.4 53.6117 1202.88 51.0401 1189.41 51.0401V53.0401V55.0401C1202.35 55.0401 1214.31 57.5085 1225.32 62.4261L1226.13 60.6001ZM1189.41 53.0401V51.0401C1175.99 51.0401 1163.62 53.237 1152.33 57.6576L1153.05 59.5201L1153.78 61.3826C1164.57 57.1632 1176.43 55.0401 1189.41 55.0401V53.0401ZM1153.05 59.5201L1152.31 57.6631C1141.27 62.0777 1131.57 68.3391 1123.22 76.4449L1124.61 77.8801L1126.01 79.3153C1133.98 71.5811 1143.23 65.6025 1153.8 61.377L1153.05 59.5201ZM1124.61 77.8801L1123.2 76.4659C1115.09 84.5768 1108.71 94.1557 1104.05 105.182L1105.89 105.96L1107.74 106.738C1112.2 96.1645 1118.3 87.0234 1126.03 79.2943L1124.61 77.8801ZM1105.89 105.96L1104.04 105.217C1099.61 116.279 1097.41 128.415 1097.41 141.6H1099.41H1101.41C1101.41 128.866 1103.54 117.241 1107.75 106.703L1105.89 105.96ZM1099.41 141.6H1097.41C1097.41 154.786 1099.61 166.921 1104.04 177.983L1105.89 177.24L1107.75 176.497C1103.54 165.959 1101.41 154.335 1101.41 141.6H1099.41ZM1105.89 177.24L1104.05 178.018C1108.71 189.044 1115.09 198.623 1123.2 206.734L1124.61 205.32L1126.03 203.906C1118.3 196.177 1112.2 187.036 1107.74 176.462L1105.89 177.24ZM1124.61 205.32L1123.22 206.755C1131.57 214.861 1141.27 221.122 1152.31 225.537L1153.05 223.68L1153.8 221.823C1143.23 217.598 1133.98 211.619 1126.01 203.885L1124.61 205.32ZM1153.05 223.68L1152.33 225.543C1163.62 229.963 1175.99 232.16 1189.41 232.16V230.16V228.16C1176.43 228.16 1164.57 226.037 1153.78 221.818L1153.05 223.68ZM1189.41 230.16V232.16C1202.86 232.16 1215.37 229.714 1226.92 224.8L1226.13 222.96L1225.35 221.12C1214.34 225.807 1202.37 228.16 1189.41 228.16V230.16ZM1226.13 222.96L1226.95 224.786C1238.51 219.622 1248.93 211.887 1258.22 201.622L1256.73 200.28L1255.25 198.938C1246.3 208.833 1236.32 216.218 1225.32 221.134L1226.13 222.96ZM1256.73 200.28L1255.35 201.728L1285.59 230.528L1286.97 229.08L1288.35 227.632L1258.11 198.832L1256.73 200.28ZM1286.97 229.08L1285.46 227.776C1273.9 241.216 1259.76 251.475 1243 258.558L1243.77 260.4L1244.55 262.242C1261.87 254.925 1276.52 244.304 1288.49 230.384L1286.97 229.08ZM1243.77 260.4L1243 258.558C1226.23 265.641 1207.54 269.2 1186.89 269.2V271.2V273.2C1208.01 273.2 1227.24 269.559 1244.55 262.242L1243.77 260.4Z" fill="black" mask="url(#path-1-outside-1_45_4)"/>
</g>
<defs>
<filter id="filter0_df_45_4" x="0" y="0" width="1299.73" height="283.2" filterUnits="userSpaceOnUse" color-interpolation-filters="sRGB">
<feFlood flood-opacity="0" result="BackgroundImageFix"/>
<feColorMatrix in="SourceAlpha" type="matrix" values="0 0 0 0 0 0 0 0 0 0 0 0 0 0 0 0 0 0 127 0" result="hardAlpha"/>
<feOffset/>
<feGaussianBlur stdDeviation="5"/>
<feComposite in2="hardAlpha" operator="out"/>
<feColorMatrix type="matrix" values="0 0 0 0 0.0470588 0 0 0 0 0.231373 0 0 0 0 0.447059 0 0 0 1 0"/>
<feBlend mode="normal" in2="BackgroundImageFix" result="effect1_dropShadow_45_4"/>
<feBlend mode="normal" in="SourceGraphic" in2="effect1_dropShadow_45_4" result="shape"/>
<feGaussianBlur stdDeviation="0.15" result="effect2_foregroundBlur_45_4"/>
</filter>
</defs>
</svg>
